<svg width="601" height="524" viewBox="0 0 601 524" fill="none" xmlns="http://www.w3.org/2000/svg">
<path fill-rule="evenodd" clip-rule="evenodd" d="M596.882 248.581C593.302 176.415 578.406 63.5539 522.583 6.41207C497.691 -19.0687 430.997 37.7797 401.644 65.2682C370.038 56.3893 335.987 51.5536 300.5 51.5536C264.617 51.5536 230.203 56.4977 198.3 65.5666C169.045 38.1455 102.119 -19 77.1736 6.53506C19.1112 65.9696 5.32575 185.684 2.49637 257.187C0.849365 267.201 0 277.411 0 287.777C0 418.239 134.538 524 300.5 524C466.462 524 601 418.239 601 287.777C601 274.424 599.591 261.329 596.882 248.581Z" fill="url(#paint0_linear_2_33)"/>
<defs>
<linearGradient id="paint0_linear_2_33" x1="475.021" y1="0" x2="475.021" y2="314.708" gradientUnits="userSpaceOnUse">
<stop stop-color="#F36C5C"/>
<stop offset="1" stop-color="#EF3B76"/>
</linearGradient>
</defs>
</svg>
